<svg width="800" height="600" viewBox="0 0 800 600" fill="none" xmlns="http://www.w3.org/2000/svg">
<rect width="800" height="600" fill="#D9D9D9"/>
<path d="M83.7242 372V264.4H114.924V372H83.7242ZM99.3242 249.4C93.5909 249.4 88.9242 247.733 85.3242 244.4C81.7242 241.067 79.9242 236.933 79.9242 232C79.9242 227.067 81.7242 222.933 85.3242 219.6C88.9242 216.267 93.5909 214.6 99.3242 214.6C105.058 214.6 109.724 216.2 113.324 219.4C116.924 222.467 118.724 226.467 118.724 231.4C118.724 236.6 116.924 240.933 113.324 244.4C109.858 247.733 105.191 249.4 99.3242 249.4ZM281.68 262.8C290.214 262.8 297.747 264.533 304.28 268C310.947 271.333 316.147 276.533 319.88 283.6C323.747 290.533 325.68 299.467 325.68 310.4V372H294.48V315.2C294.48 306.533 292.68 300.133 289.08 296C285.48 291.867 280.414 289.8 273.88 289.8C269.347 289.8 265.28 290.867 261.68 293C258.08 295 255.28 298.067 253.28 302.2C251.28 306.333 250.28 311.6 250.28 318V372H219.08V315.2C219.08 306.533 217.28 300.133 213.68 296C210.214 291.867 205.214 289.8 198.68 289.8C194.147 289.8 190.08 290.867 186.48 293C182.88 295 180.08 298.067 178.08 302.2C176.08 306.333 175.08 311.6 175.08 318V372H143.88V264.4H173.68V293.8L168.08 285.2C171.814 277.867 177.08 272.333 183.88 268.6C190.814 264.733 198.68 262.8 207.48 262.8C217.347 262.8 225.947 265.333 233.28 270.4C240.747 275.333 245.68 282.933 248.08 293.2L237.08 290.2C240.68 281.8 246.414 275.133 254.28 270.2C262.28 265.267 271.414 262.8 281.68 262.8ZM419.646 372V351L417.646 346.4V308.8C417.646 302.133 415.579 296.933 411.446 293.2C407.446 289.467 401.246 287.6 392.846 287.6C387.113 287.6 381.446 288.533 375.846 290.4C370.379 292.133 365.713 294.533 361.846 297.6L350.646 275.8C356.513 271.667 363.579 268.467 371.846 266.2C380.113 263.933 388.513 262.8 397.046 262.8C413.446 262.8 426.179 266.667 435.246 274.4C444.313 282.133 448.846 294.2 448.846 310.6V372H419.646ZM386.846 373.6C378.446 373.6 371.246 372.2 365.246 369.4C359.246 366.467 354.646 362.533 351.446 357.6C348.246 352.667 346.646 347.133 346.646 341C346.646 334.6 348.179 329 351.246 324.2C354.446 319.4 359.446 315.667 366.246 313C373.046 310.2 381.913 308.8 392.846 308.8H421.446V327H396.246C388.913 327 383.846 328.2 381.046 330.6C378.379 333 377.046 336 377.046 339.6C377.046 343.6 378.579 346.8 381.646 349.2C384.846 351.467 389.179 352.6 394.646 352.6C399.846 352.6 404.513 351.4 408.646 349C412.779 346.467 415.779 342.8 417.646 338L422.446 352.4C420.179 359.333 416.046 364.6 410.046 368.2C404.046 371.8 396.313 373.6 386.846 373.6ZM528.465 412.4C518.332 412.4 508.532 411.133 499.065 408.6C489.732 406.2 481.932 402.533 475.665 397.6L488.065 375.2C492.598 378.933 498.332 381.867 505.265 384C512.332 386.267 519.265 387.4 526.065 387.4C537.132 387.4 545.132 384.933 550.065 380C555.132 375.067 557.665 367.733 557.665 358V341.8L559.665 314.8L559.265 287.6V264.4H588.865V354C588.865 374 583.665 388.733 573.265 398.2C562.865 407.667 547.932 412.4 528.465 412.4ZM523.665 366.8C513.665 366.8 504.598 364.667 496.465 360.4C488.465 356 481.998 349.933 477.065 342.2C472.265 334.333 469.865 325.2 469.865 314.8C469.865 304.267 472.265 295.133 477.065 287.4C481.998 279.533 488.465 273.467 496.465 269.2C504.598 264.933 513.665 262.8 523.665 262.8C532.732 262.8 540.732 264.667 547.665 268.4C554.598 272 559.998 277.667 563.865 285.4C567.732 293 569.665 302.8 569.665 314.8C569.665 326.667 567.732 336.467 563.865 344.2C559.998 351.8 554.598 357.467 547.665 361.2C540.732 364.933 532.732 366.8 523.665 366.8ZM529.865 341.2C535.332 341.2 540.198 340.133 544.465 338C548.732 335.733 552.065 332.6 554.465 328.6C556.865 324.6 558.065 320 558.065 314.8C558.065 309.467 556.865 304.867 554.465 301C552.065 297 548.732 293.933 544.465 291.8C540.198 289.533 535.332 288.4 529.865 288.4C524.398 288.4 519.532 289.533 515.265 291.8C510.998 293.933 507.598 297 505.065 301C502.665 304.867 501.465 309.467 501.465 314.8C501.465 320 502.665 324.6 505.065 328.6C507.598 332.6 510.998 335.733 515.265 338C519.532 340.133 524.398 341.2 529.865 341.2ZM671.304 373.6C659.037 373.6 648.237 371.2 638.904 366.4C629.704 361.6 622.571 355.067 617.504 346.8C612.437 338.4 609.904 328.867 609.904 318.2C609.904 307.4 612.371 297.867 617.304 289.6C622.371 281.2 629.237 274.667 637.904 270C646.571 265.2 656.371 262.8 667.304 262.8C677.837 262.8 687.304 265.067 695.704 269.6C704.237 274 710.971 280.4 715.904 288.8C720.837 297.067 723.304 307 723.304 318.6C723.304 319.8 723.237 321.2 723.104 322.8C722.971 324.267 722.837 325.667 722.704 327H635.304V308.8H706.304L694.304 314.2C694.304 308.6 693.171 303.733 690.904 299.6C688.637 295.467 685.504 292.267 681.504 290C677.504 287.6 672.837 286.4 667.504 286.4C662.171 286.4 657.437 287.6 653.304 290C649.304 292.267 646.171 295.533 643.904 299.8C641.637 303.933 640.504 308.867 640.504 314.6V319.4C640.504 325.267 641.771 330.467 644.304 335C646.971 339.4 650.637 342.8 655.304 345.2C660.104 347.467 665.704 348.6 672.104 348.6C677.837 348.6 682.837 347.733 687.104 346C691.504 344.267 695.504 341.667 699.104 338.2L715.704 356.2C710.771 361.8 704.571 366.133 697.104 369.2C689.637 372.133 681.037 373.6 671.304 373.6Z" fill="black" fill-opacity="0.3"/>
</svg>
