<svg width="16" height="16" viewBox="0 0 16 16" fill="none" xmlns="http://www.w3.org/2000/svg">
<path fill-rule="evenodd" clip-rule="evenodd" d="M2.4 1.5C1.90294 1.5 1.5 1.90294 1.5 2.4C1.5 2.89706 1.90294 3.3 2.4 3.3C2.89706 3.3 3.3 2.89706 3.3 2.4C3.3 1.90294 2.89706 1.5 2.4 1.5ZM0.5 2.4C0.5 1.35066 1.35066 0.5 2.4 0.5C3.44934 0.5 4.3 1.35066 4.3 2.4C4.3 3.44934 3.44934 4.3 2.4 4.3C1.35066 4.3 0.5 3.44934 0.5 2.4ZM8.00001 1.5C7.50295 1.5 7.1 1.90294 7.1 2.4C7.1 2.89706 7.50295 3.3 8.00001 3.3C8.49706 3.3 8.90001 2.89706 8.90001 2.4C8.90001 1.90294 8.49706 1.5 8.00001 1.5ZM6.1 2.4C6.1 1.35066 6.95066 0.5 8.00001 0.5C9.04935 0.5 9.9 1.35066 9.9 2.4C9.9 3.44934 9.04935 4.3 8.00001 4.3C6.95066 4.3 6.1 3.44934 6.1 2.4ZM13.6 1.5C13.1029 1.5 12.7 1.90294 12.7 2.4C12.7 2.89706 13.1029 3.3 13.6 3.3C14.0971 3.3 14.5 2.89706 14.5 2.4C14.5 1.90294 14.0971 1.5 13.6 1.5ZM11.7 2.4C11.7 1.35066 12.5507 0.5 13.6 0.5C14.6493 0.5 15.5 1.35066 15.5 2.4C15.5 3.44934 14.6493 4.3 13.6 4.3C12.5507 4.3 11.7 3.44934 11.7 2.4ZM2.4 7.1C1.90294 7.1 1.5 7.50294 1.5 8C1.5 8.49706 1.90294 8.9 2.4 8.9C2.89706 8.9 3.3 8.49706 3.3 8C3.3 7.50294 2.89706 7.1 2.4 7.1ZM0.5 8C0.5 6.95066 1.35066 6.1 2.4 6.1C3.44934 6.1 4.3 6.95066 4.3 8C4.3 9.04934 3.44934 9.9 2.4 9.9C1.35066 9.9 0.5 9.04934 0.5 8ZM8 7.1C7.50295 7.1 7.1 7.50294 7.1 8C7.1 8.49706 7.50295 8.9 8 8.9C8.49706 8.9 8.90001 8.49706 8.90001 8C8.90001 7.50294 8.49706 7.1 8 7.1ZM6.1 8C6.1 6.95066 6.95066 6.1 8 6.1C9.04935 6.1 9.9 6.95066 9.9 8C9.9 9.04934 9.04935 9.9 8 9.9C6.95066 9.9 6.1 9.04934 6.1 8ZM13.6 7.1C13.1029 7.1 12.7 7.50294 12.7 8C12.7 8.49706 13.1029 8.9 13.6 8.9C14.0971 8.9 14.5 8.49706 14.5 8C14.5 7.50294 14.0971 7.1 13.6 7.1ZM11.7 8C11.7 6.95066 12.5507 6.1 13.6 6.1C14.6493 6.1 15.5 6.95066 15.5 8C15.5 9.04934 14.6493 9.9 13.6 9.9C12.5507 9.9 11.7 9.04934 11.7 8ZM2.4 12.7C1.90294 12.7 1.5 13.1029 1.5 13.6C1.5 14.0971 1.90294 14.5 2.4 14.5C2.89706 14.5 3.3 14.0971 3.3 13.6C3.3 13.1029 2.89706 12.7 2.4 12.7ZM0.5 13.6C0.5 12.5507 1.35066 11.7 2.4 11.7C3.44934 11.7 4.3 12.5507 4.3 13.6C4.3 14.6493 3.44934 15.5 2.4 15.5C1.35066 15.5 0.5 14.6493 0.5 13.6ZM8.00001 12.7C7.50295 12.7 7.1 13.1029 7.1 13.6C7.1 14.0971 7.50295 14.5 8.00001 14.5C8.49706 14.5 8.90001 14.0971 8.90001 13.6C8.90001 13.1029 8.49706 12.7 8.00001 12.7ZM6.1 13.6C6.1 12.5507 6.95066 11.7 8.00001 11.7C9.04935 11.7 9.90001 12.5507 9.90001 13.6C9.90001 14.6493 9.04935 15.5 8.00001 15.5C6.95066 15.5 6.1 14.6493 6.1 13.6ZM13.6 12.7C13.1029 12.7 12.7 13.1029 12.7 13.6C12.7 14.0971 13.1029 14.5 13.6 14.5C14.0971 14.5 14.5 14.0971 14.5 13.6C14.5 13.1029 14.0971 12.7 13.6 12.7ZM11.7 13.6C11.7 12.5507 12.5507 11.7 13.6 11.7C14.6493 11.7 15.5 12.5507 15.5 13.6C15.5 14.6493 14.6493 15.5 13.6 15.5C12.5507 15.5 11.7 14.6493 11.7 13.6Z" fill="white"/>
</svg>
